<mxfile host="65bd71144e">
    <diagram id="qGGJaGB7oJVBF8XnQ5PC" name="Page-1">
        <mxGraphModel dx="2508" dy="949" grid="1" gridSize="10" guides="1" tooltips="1" connect="1" arrows="1" fold="1" page="1" pageScale="1" pageWidth="850" pageHeight="1100" math="0" shadow="0">
            <root>
                <mxCell id="0"/>
                <mxCell id="1" parent="0"/>
                <mxCell id="46" value="alt" style="shape=umlFrame;whiteSpace=wrap;html=1;" vertex="1" parent="1">
                    <mxGeometry x="-290" y="290" width="1120" height="420" as="geometry"/>
                </mxCell>
                <mxCell id="2" value="Admin" style="shape=umlActor;verticalLabelPosition=bottom;verticalAlign=top;html=1;outlineConnect=0;" parent="1" vertex="1">
                    <mxGeometry x="-270" y="40" width="30" height="60" as="geometry"/>
                </mxCell>
                <mxCell id="8" value="EmployeeController" style="rounded=0;whiteSpace=wrap;html=1;" parent="1" vertex="1">
                    <mxGeometry x="200" y="50" width="120" height="60" as="geometry"/>
                </mxCell>
                <mxCell id="9" value="empDAO:EmployeeDAO" style="rounded=0;whiteSpace=wrap;html=1;" parent="1" vertex="1">
                    <mxGeometry x="464" y="50" width="150" height="60" as="geometry"/>
                </mxCell>
                <mxCell id="11" value="DB" style="shape=cylinder3;whiteSpace=wrap;html=1;boundedLbl=1;backgroundOutline=1;size=15;" parent="1" vertex="1">
                    <mxGeometry x="760" y="40" width="80" height="80" as="geometry"/>
                </mxCell>
                <mxCell id="12" value="" style="endArrow=none;dashed=1;html=1;dashPattern=1 3;strokeWidth=2;entryX=0.5;entryY=1;entryDx=0;entryDy=0;" parent="1" edge="1" target="23">
                    <mxGeometry width="50" height="50" relative="1" as="geometry">
                        <mxPoint x="-20" y="700" as="sourcePoint"/>
                        <mxPoint x="-20" y="120" as="targetPoint"/>
                    </mxGeometry>
                </mxCell>
                <mxCell id="13" value="" style="endArrow=none;dashed=1;html=1;dashPattern=1 3;strokeWidth=2;" parent="1" edge="1">
                    <mxGeometry width="50" height="50" relative="1" as="geometry">
                        <mxPoint x="259" y="690" as="sourcePoint"/>
                        <mxPoint x="259.40999999999997" y="109.99999999999989" as="targetPoint"/>
                    </mxGeometry>
                </mxCell>
                <mxCell id="14" value="" style="endArrow=none;dashed=1;html=1;dashPattern=1 3;strokeWidth=2;" parent="1" edge="1">
                    <mxGeometry width="50" height="50" relative="1" as="geometry">
                        <mxPoint x="539" y="670" as="sourcePoint"/>
                        <mxPoint x="539.4099999999999" y="109.99999999999989" as="targetPoint"/>
                    </mxGeometry>
                </mxCell>
                <mxCell id="15" value="" style="endArrow=none;dashed=1;html=1;dashPattern=1 3;strokeWidth=2;" parent="1" edge="1">
                    <mxGeometry width="50" height="50" relative="1" as="geometry">
                        <mxPoint x="799" y="670" as="sourcePoint"/>
                        <mxPoint x="799.4099999999999" y="119.99999999999989" as="targetPoint"/>
                    </mxGeometry>
                </mxCell>
                <mxCell id="16" value="1. search employee" style="endArrow=classic;html=1;entryX=0.001;entryY=0.017;entryDx=0;entryDy=0;entryPerimeter=0;" parent="1" edge="1" target="26">
                    <mxGeometry x="-0.1132" y="10" width="50" height="50" relative="1" as="geometry">
                        <mxPoint x="-256" y="137" as="sourcePoint"/>
                        <mxPoint x="-20.75999999999999" y="136.512" as="targetPoint"/>
                        <mxPoint as="offset"/>
                    </mxGeometry>
                </mxCell>
                <mxCell id="18" value="" style="rounded=0;whiteSpace=wrap;html=1;" parent="1" vertex="1">
                    <mxGeometry x="255" y="130" width="10" height="540" as="geometry"/>
                </mxCell>
                <mxCell id="19" value="" style="rounded=0;whiteSpace=wrap;html=1;" parent="1" vertex="1">
                    <mxGeometry x="534" y="201" width="10" height="239" as="geometry"/>
                </mxCell>
                <mxCell id="20" value="3. searchEmployee()" style="endArrow=classic;html=1;exitX=1.032;exitY=0.037;exitDx=0;exitDy=0;exitPerimeter=0;entryX=1.021;entryY=0.07;entryDx=0;entryDy=0;entryPerimeter=0;rounded=0;" edge="1" parent="1" source="18" target="22">
                    <mxGeometry x="-0.0442" y="50" width="50" height="50" relative="1" as="geometry">
                        <mxPoint x="266.86999999999966" y="150.16200000000003" as="sourcePoint"/>
                        <mxPoint x="276.1899999999998" y="193.98999999999995" as="targetPoint"/>
                        <mxPoint as="offset"/>
                        <Array as="points">
                            <mxPoint x="322" y="150"/>
                            <mxPoint x="322" y="194"/>
                        </Array>
                    </mxGeometry>
                </mxCell>
                <mxCell id="22" value="" style="rounded=0;whiteSpace=wrap;html=1;" vertex="1" parent="1">
                    <mxGeometry x="262" y="160" width="10" height="480" as="geometry"/>
                </mxCell>
                <mxCell id="23" value="EmployeeListPage" style="rounded=0;whiteSpace=wrap;html=1;" vertex="1" parent="1">
                    <mxGeometry x="-80" y="50" width="120" height="60" as="geometry"/>
                </mxCell>
                <mxCell id="25" value="" style="endArrow=none;dashed=1;html=1;dashPattern=1 3;strokeWidth=2;entryX=0.5;entryY=1;entryDx=0;entryDy=0;" edge="1" parent="1">
                    <mxGeometry width="50" height="50" relative="1" as="geometry">
                        <mxPoint x="-256" y="710" as="sourcePoint"/>
                        <mxPoint x="-255.59" y="120.00000000000011" as="targetPoint"/>
                    </mxGeometry>
                </mxCell>
                <mxCell id="26" value="" style="rounded=0;whiteSpace=wrap;html=1;" vertex="1" parent="1">
                    <mxGeometry x="-24" y="128" width="10" height="532" as="geometry"/>
                </mxCell>
                <mxCell id="27" value="2. doGet()" style="endArrow=classic;html=1;entryX=-0.039;entryY=0.026;entryDx=0;entryDy=0;entryPerimeter=0;exitX=1.074;exitY=0.032;exitDx=0;exitDy=0;exitPerimeter=0;" edge="1" parent="1" source="26" target="18">
                    <mxGeometry x="-0.1132" y="10" width="50" height="50" relative="1" as="geometry">
                        <mxPoint x="-10.779999999999973" y="145.30400000000003" as="sourcePoint"/>
                        <mxPoint x="253.9799999999998" y="144.394" as="targetPoint"/>
                        <mxPoint as="offset"/>
                    </mxGeometry>
                </mxCell>
                <mxCell id="29" value="4. getNumberOfEmployee()" style="endArrow=classic;html=1;entryX=-0.006;entryY=0.044;entryDx=0;entryDy=0;entryPerimeter=0;exitX=1.046;exitY=0.107;exitDx=0;exitDy=0;exitPerimeter=0;" edge="1" parent="1" source="22" target="19">
                    <mxGeometry x="-0.1132" y="10" width="50" height="50" relative="1" as="geometry">
                        <mxPoint x="270.2199999999998" y="211.4999999999999" as="sourcePoint"/>
                        <mxPoint x="534" y="211.50600000000009" as="targetPoint"/>
                        <mxPoint as="offset"/>
                    </mxGeometry>
                </mxCell>
                <mxCell id="30" value="" style="rounded=0;whiteSpace=wrap;html=1;" vertex="1" parent="1">
                    <mxGeometry x="794" y="210" width="10" height="70" as="geometry"/>
                </mxCell>
                <mxCell id="31" value="5. executeQuery()" style="endArrow=classic;html=1;exitX=1.03;exitY=0.086;exitDx=0;exitDy=0;entryX=0.099;entryY=0.17;entryDx=0;entryDy=0;entryPerimeter=0;exitPerimeter=0;" edge="1" parent="1" source="19" target="30">
                    <mxGeometry x="-0.3048" y="2" width="50" height="50" relative="1" as="geometry">
                        <mxPoint x="542.9999999999998" y="221.4999999999999" as="sourcePoint"/>
                        <mxPoint x="793.29" y="222" as="targetPoint"/>
                        <mxPoint as="offset"/>
                    </mxGeometry>
                </mxCell>
                <mxCell id="34" value="6. return Result" style="endArrow=classic;html=1;entryX=1.067;entryY=0.266;entryDx=0;entryDy=0;entryPerimeter=0;dashed=1;exitX=-0.01;exitY=0.788;exitDx=0;exitDy=0;exitPerimeter=0;" edge="1" parent="1" source="30" target="19">
                    <mxGeometry x="0.3285" width="50" height="50" relative="1" as="geometry">
                        <mxPoint x="794" y="265" as="sourcePoint"/>
                        <mxPoint x="545.75" y="264.24199999999996" as="targetPoint"/>
                        <mxPoint as="offset"/>
                    </mxGeometry>
                </mxCell>
                <mxCell id="35" value="7.1 return 0" style="endArrow=classic;html=1;exitX=0.014;exitY=0.519;exitDx=0;exitDy=0;entryX=1.036;entryY=0.342;entryDx=0;entryDy=0;entryPerimeter=0;exitPerimeter=0;dashed=1;" edge="1" parent="1" source="19" target="22">
                    <mxGeometry x="0.3285" width="50" height="50" relative="1" as="geometry">
                        <mxPoint x="533.9999999999998" y="325.15999999999997" as="sourcePoint"/>
                        <mxPoint x="272.98" y="324.686" as="targetPoint"/>
                        <mxPoint as="offset"/>
                    </mxGeometry>
                </mxCell>
                <mxCell id="36" value="7.2 send to Error Page" style="endArrow=classic;html=1;exitX=0.032;exitY=0.378;exitDx=0;exitDy=0;exitPerimeter=0;dashed=1;" edge="1" parent="1" source="18">
                    <mxGeometry x="-0.5972" width="50" height="50" relative="1" as="geometry">
                        <mxPoint x="258.79999999999995" y="334.65999999999997" as="sourcePoint"/>
                        <mxPoint x="-256" y="334" as="targetPoint"/>
                        <mxPoint as="offset"/>
                    </mxGeometry>
                </mxCell>
                <mxCell id="37" value="8. return length" style="endArrow=classic;html=1;exitX=0.033;exitY=0.961;exitDx=0;exitDy=0;entryX=1.007;entryY=0.562;entryDx=0;entryDy=0;entryPerimeter=0;exitPerimeter=0;dashed=1;" edge="1" parent="1" source="19" target="22">
                    <mxGeometry x="0.3285" width="50" height="50" relative="1" as="geometry">
                        <mxPoint x="533.02" y="430.46999999999997" as="sourcePoint"/>
                        <mxPoint x="272" y="429.9959999999999" as="targetPoint"/>
                        <mxPoint as="offset"/>
                    </mxGeometry>
                </mxCell>
                <mxCell id="38" value="9. searchEmployee()" style="endArrow=classic;html=1;exitX=1.247;exitY=0.947;exitDx=0;exitDy=0;exitPerimeter=0;entryX=0.052;entryY=0.134;entryDx=0;entryDy=0;entryPerimeter=0;" edge="1" parent="1" target="39">
                    <mxGeometry x="-0.3033" width="50" height="50" relative="1" as="geometry">
                        <mxPoint x="275.47" y="519.8600000000001" as="sourcePoint"/>
                        <mxPoint x="521" y="520" as="targetPoint"/>
                        <mxPoint as="offset"/>
                    </mxGeometry>
                </mxCell>
                <mxCell id="39" value="" style="rounded=0;whiteSpace=wrap;html=1;" vertex="1" parent="1">
                    <mxGeometry x="533" y="510" width="10" height="80" as="geometry"/>
                </mxCell>
                <mxCell id="40" value="" style="rounded=0;whiteSpace=wrap;html=1;" vertex="1" parent="1">
                    <mxGeometry x="794" y="514" width="10" height="70" as="geometry"/>
                </mxCell>
                <mxCell id="41" value="10. executeQuery()" style="endArrow=classic;html=1;exitX=1.061;exitY=0.219;exitDx=0;exitDy=0;entryX=0.014;entryY=0.197;entryDx=0;entryDy=0;entryPerimeter=0;exitPerimeter=0;" edge="1" parent="1" source="39" target="40">
                    <mxGeometry x="-0.3033" width="50" height="50" relative="1" as="geometry">
                        <mxPoint x="542" y="527.25" as="sourcePoint"/>
                        <mxPoint x="794.6700000000001" y="527.86" as="targetPoint"/>
                        <mxPoint as="offset"/>
                    </mxGeometry>
                </mxCell>
                <mxCell id="42" value="11. return Result" style="endArrow=classic;html=1;entryX=1.09;entryY=0.88;entryDx=0;entryDy=0;entryPerimeter=0;dashed=1;" edge="1" parent="1">
                    <mxGeometry x="0.3842" y="1" width="50" height="50" relative="1" as="geometry">
                        <mxPoint x="794" y="572" as="sourcePoint"/>
                        <mxPoint x="542.9000000000001" y="570.72" as="targetPoint"/>
                        <mxPoint as="offset"/>
                    </mxGeometry>
                </mxCell>
                <mxCell id="43" value="12. return ResultSet" style="endArrow=classic;html=1;exitX=-0.012;exitY=0.897;exitDx=0;exitDy=0;exitPerimeter=0;entryX=1.009;entryY=0.857;entryDx=0;entryDy=0;entryPerimeter=0;dashed=1;" edge="1" parent="1">
                    <mxGeometry x="0.4025" width="50" height="50" relative="1" as="geometry">
                        <mxPoint x="531.8800000000003" y="580.893" as="sourcePoint"/>
                        <mxPoint x="271.09000000000015" y="580.36" as="targetPoint"/>
                        <mxPoint as="offset"/>
                    </mxGeometry>
                </mxCell>
                <mxCell id="44" value="13. send Information to EmployeeListPage" style="endArrow=classic;html=1;exitX=-0.01;exitY=0.879;exitDx=0;exitDy=0;exitPerimeter=0;entryX=1.052;entryY=0.892;entryDx=0;entryDy=0;entryPerimeter=0;dashed=1;" edge="1" parent="1" source="18" target="26">
                    <mxGeometry x="-0.0692" y="-1" width="50" height="50" relative="1" as="geometry">
                        <mxPoint x="200.0000000000001" y="610.533" as="sourcePoint"/>
                        <mxPoint x="-60.78999999999985" y="610.0000000000001" as="targetPoint"/>
                        <mxPoint as="offset"/>
                    </mxGeometry>
                </mxCell>
                <mxCell id="45" value="14. display information" style="endArrow=classic;html=1;exitX=-0.007;exitY=0.914;exitDx=0;exitDy=0;exitPerimeter=0;dashed=1;" edge="1" parent="1" source="26">
                    <mxGeometry x="0.1624" y="-2" width="50" height="50" relative="1" as="geometry">
                        <mxPoint x="-28.62000000000012" y="614.2479999999999" as="sourcePoint"/>
                        <mxPoint x="-255" y="614" as="targetPoint"/>
                        <mxPoint as="offset"/>
                    </mxGeometry>
                </mxCell>
                <mxCell id="47" value="[Search result is none]" style="text;html=1;strokeColor=none;fillColor=none;align=center;verticalAlign=middle;whiteSpace=wrap;rounded=0;" vertex="1" parent="1">
                    <mxGeometry x="-220" y="300" width="150" height="30" as="geometry"/>
                </mxCell>
                <mxCell id="48" value="" style="endArrow=none;dashed=1;html=1;rounded=0;exitX=0;exitY=0.245;exitDx=0;exitDy=0;exitPerimeter=0;entryX=1;entryY=0.245;entryDx=0;entryDy=0;entryPerimeter=0;" edge="1" parent="1" source="46" target="46">
                    <mxGeometry width="50" height="50" relative="1" as="geometry">
                        <mxPoint x="270" y="400" as="sourcePoint"/>
                        <mxPoint x="320" y="350" as="targetPoint"/>
                    </mxGeometry>
                </mxCell>
                <mxCell id="49" value="[Else]" style="text;html=1;strokeColor=none;fillColor=none;align=center;verticalAlign=middle;whiteSpace=wrap;rounded=0;" vertex="1" parent="1">
                    <mxGeometry x="-220" y="410" width="150" height="30" as="geometry"/>
                </mxCell>
            </root>
        </mxGraphModel>
    </diagram>
</mxfile>